nColumns=19
nRows=49
DataType=double
version=3
OpenSimVersion=4.1
endheader
time	ground_force_1_vx	ground_force_1_vy	ground_force_1_vz	ground_force_1_px	ground_force_1_py	ground_force_1_pz	ground_force_1_mx	ground_force_1_my	ground_force_1_mz	ground_force_2_vx	ground_force_2_vy	ground_force_2_vz	ground_force_2_px	ground_force_2_py	ground_force_2_pz	ground_force_2_mx	ground_force_2_my	ground_force_2_mz
0	16.1708	151.683	6.95347	0.223503	0.006	-0.175747	0	0.016179	0	0	0	0	0.774871	0	-0.249897	0	0	0
0.01	7.15932	183.079	7.17997	0.228158	0.006	-0.176137	0	0.022157	0	0	0	0	0.774871	0	-0.249897	0	0	0
0.02	-2.81978	218.544	7.03059	0.233227	0.006	-0.176342	0	0.032816	0	0	0	0	0.774871	0	-0.249897	0	0	0
0.03	-13.4456	257.426	6.38757	0.237923	0.006	-0.176332	0	0.043292	0	0	0	0	0.774871	0	-0.249897	0	0	0
0.04	-24.3587	298.756	5.14538	0.242318	0.006	-0.176155	0	0.051258	0	0	0	0	0.774871	0	-0.249897	0	0	0
0.05	-35.1846	341.285	3.23452	0.246477	0.006	-0.175854	0	0.057367	0	0	0	0	0.774871	0	-0.249897	0	0	0
0.06	-45.5408	383.631	0.649405	0.250446	0.006	-0.175466	0	0.065662	0	0	0	0	0.774871	0	-0.249897	0	0	0
0.07	-55.0654	424.449	-2.53151	0.254256	0.006	-0.175028	0	0.082933	0	0	0	0	0.774871	0	-0.249897	0	0	0
0.08	-63.4438	462.594	-6.15104	0.257922	0.006	-0.174574	0	0.116371	0	0	0	0	0.774871	0	-0.249897	0	0	0
0.09	-70.4491	497.246	-10.0115	0.261452	0.006	-0.174134	0	0.170468	0	0	0	0	0.774871	0	-0.249897	0	0	0
0.1	-75.9637	527.957	-13.9071	0.264855	0.006	-0.173733	0	0.246006	0	0	0	0	0.774871	0	-0.249897	0	0	0
0.11	-79.9613	554.584	-17.635	0.268137	0.006	-0.173393	0	0.341153	0	0	0	0	0.774871	0	-0.249897	0	0	0
0.12	-82.4828	577.164	-21.0092	0.271305	0.006	-0.173132	0	0.451539	0	0	0	0	0.774871	0	-0.249897	0	0	0
0.13	-83.6206	595.821	-23.8836	0.274365	0.006	-0.17296	0	0.570013	0	0	0	0	0.774871	0	-0.249897	0	0	0
0.14	-83.5037	610.713	-26.1645	0.277328	0.006	-0.172882	0	0.687594	0	0	0	0	0.774871	0	-0.249897	0	0	0
0.15	-82.2851	621.997	-27.8144	0.280212	0.006	-0.172899	0	0.794782	0	0	0	0	0.774871	0	-0.249897	0	0	0
0.16	-80.1336	629.824	-28.8474	0.28304	0.006	-0.173003	0	0.882763	0	0	0	0	0.774871	0	-0.249897	0	0	0
0.17	-77.2261	634.347	-29.3165	0.285839	0.006	-0.173183	0	0.944406	0	0	0	0	0.774871	0	-0.249897	0	0	0
0.18	-73.7416	635.733	-29.2971	0.288642	0.006	-0.173428	0	0.974921	0	0	0	0	0.774871	0	-0.249897	0	0	0
0.19	-69.8518	634.19	-28.8692	0.291482	0.006	-0.173723	0	0.972053	0	0	0	0	0.774871	0	-0.249897	0	0	0
0.2	-65.7128	629.98	-28.1057	0.294395	0.006	-0.174057	0	0.935686	0	0	0	0	0.774871	0	-0.249897	0	0	0
0.21	-61.4591	623.424	-27.0679	0.297411	0.006	-0.174417	0	0.867099	0	0	0	0	0.774871	0	-0.249897	0	0	0
0.22	-57.1997	614.89	-25.8088	0.300562	0.006	-0.174791	0	0.76812	0	0	0	0	0.774871	0	-0.249897	0	0	0
0.23	-53.017	604.771	-24.378	0.303871	0.006	-0.175166	0	0.640452	0	0	0	0	0.774871	0	-0.249897	0	0	0
0.24	-48.9668	593.466	-22.8282	0.307358	0.006	-0.175531	0	0.48529	0	0	0	0	0.774871	0	-0.249897	0	0	0
0.25	-45.0799	581.371	-21.2187	0.311036	0.006	-0.175873	0	0.303225	0	0	0	0	0.774871	0	-0.249897	0	0	0
0.26	-41.3652	568.868	-19.6145	0.314912	0.006	-0.176181	0	0.094414	0	0	0	0	0.774871	0	-0.249897	0	0	0
0.27	-37.8133	556.339	-18.0815	0.318986	0.006	-0.176444	0	-0.141073	0	0	0	0	0.774871	0	-0.249897	0	0	0
0.28	-34.4011	544.17	-16.6812	0.32325	0.006	-0.176656	0	-0.403031	0	0	0	0	0.774871	0	-0.249897	0	0	0
0.29	-31.0954	532.758	-15.4662	0.327691	0.006	-0.176815	0	-0.69093	0	0	0	0	0.774871	0	-0.249897	0	0	0
0.3	-27.8562	522.518	-14.479	0.332281	0.006	-0.176923	0	-1.00361	0	0	0	0	0.774871	0	-0.249897	0	0	0
0.31	-24.6393	513.87	-13.7509	0.336985	0.006	-0.176988	0	-1.33907	0	0	0	0	0.774871	0	-0.249897	0	0	0
0.32	-21.3985	507.223	-13.3028	0.341752	0.006	-0.177021	0	-1.69432	0	0	0	0	0.774871	0	-0.249897	0	0	0
0.33	-18.0881	502.953	-13.1447	0.346523	0.006	-0.17704	0	-2.06531	0	0	0	0	0.774871	0	-0.249897	0	0	0
0.34	-14.6647	501.367	-13.2744	0.351234	0.006	-0.177061	0	-2.44707	0	0	0	0	0.774871	0	-0.249897	0	0	0
0.35	-11.0885	502.675	-13.6742	0.35582	0.006	-0.177102	0	-2.83405	0	0	0	0	0.774871	0	-0.249897	0	0	0
0.36	-7.32498	506.965	-14.3096	0.360223	0.006	-0.17718	0	-3.22073	0	0	0	0	0.774871	0	-0.249897	0	0	0
0.37	-3.34518	514.192	-15.1284	0.364398	0.006	-0.177308	0	-3.60208	0	0	0	0	0.774871	0	-0.249897	0	0	0
0.38	0.8732	524.185	-16.0658	0.368318	0.006	-0.177496	0	-3.97374	0	0	0	0	0.774871	0	-0.249897	0	0	0
0.39	5.34552	536.652	-17.0524	0.371968	0.006	-0.177747	0	-4.33157	0	0	0	0	0.774871	0	-0.249897	0	0	0
0.4	10.0799	551.199	-18.0226	0.375351	0.006	-0.17806	0	-4.671	0	0	0	0	0.774871	0	-0.249897	0	0	0
0.41	15.0758	567.332	-18.9201	0.378477	0.006	-0.178427	0	-4.98649	0	0	0	0	0.774871	0	-0.249897	0	0	0
0.42	20.3235	584.472	-19.7002	0.381368	0.006	-0.178837	0	-5.27125	0	0	0	0	0.774871	0	-0.249897	0	0	0
0.43	25.8026	601.953	-20.3305	0.384044	0.006	-0.179276	0	-5.51728	0	0	0	0	0.774871	0	-0.249897	0	0	0
0.44	31.4819	619.036	-20.7892	0.386533	0.006	-0.17973	0	-5.71587	0	0	0	0	0.774871	0	-0.249897	0	0	0
0.45	37.3186	634.92	-21.062	0.388857	0.006	-0.180186	0	-5.85849	0	0	0	0	0.774871	0	-0.249897	0	0	0
0.46	43.2568	648.763	-21.1395	0.39104	0.006	-0.180631	0	-5.93766	0	0	0	0	0.774871	0	-0.249897	0	0	0
0.47	49.2234	659.716	-21.013	0.393101	0.006	-0.181057	0	-5.94804	0	0	0	0	0.774871	0	-0.249897	0	0	0
0.48	55.1231	666.956	-20.6721	0.395058	0.006	-0.181453	0	-5.8872	0	0	0	0	0.774871	0	-0.249897	0	0	0
